<svg width="43" height="5" viewBox="0 0 43 5" fill="none" xmlns="http://www.w3.org/2000/svg">
<path d="M42.0997 2.07918C39.9316 1.86668 37.4928 1.63106 35.8141 1.43575C31.9235 0.984289 28.0631 0.648247 24.2328 0.427622C20.4026 0.206997 16.7531 0.18481 13.2841 0.36106C9.81514 0.537518 6.8767 1.09783 4.46878 2.042C3.3916 2.45606 2.49722 3.037 1.35972 3.70887C0.222222 4.38075 1.32128 5.14043 2.24035 4.53543C3.15941 3.93043 4.3341 3.22575 5.49472 2.76481C7.04451 2.13981 8.81743 1.71002 10.8135 1.47543C12.8095 1.24085 14.9639 1.13554 17.2766 1.1595C19.5891 1.18387 21.9707 1.30481 24.4213 1.52231C26.8719 1.73981 29.3565 2.00231 31.875 2.30981C34.3938 2.61689 36.8571 2.92835 39.265 3.24418C40.0922 3.35294 40.986 3.42512 42.3528 3.5595C42.2357 3.23387 42.1269 2.51762 42.0997 2.07918Z" fill="#1B1B1B"/>
</svg>
