<svg width="43" height="7" viewBox="0 0 43 7" fill="none" xmlns="http://www.w3.org/2000/svg">
<path d="M42.0193 0.492272C41.9212 0.389772 41.7455 0.340501 41.4924 0.344459C41.2393 0.347897 40.9812 0.423834 40.7199 0.570084C36.932 2.56633 33.0013 3.9205 28.9277 4.63258C24.8177 5.34883 20.6521 5.69812 16.4802 5.67633C12.2265 5.65888 7.97693 5.40735 3.75084 4.9229C3.21366 4.8604 2.07709 4.72727 0.849277 4.58227C0.706778 5.02758 0.552715 5.48102 0.353027 5.84352C1.83865 6.00321 3.01959 6.14165 3.70959 6.20165C8.0399 6.58146 12.3878 6.72303 16.7337 6.62571C21.0118 6.5283 25.275 6.08456 29.4815 5.29883C33.6858 4.51363 37.7441 3.16529 41.6562 1.25383C41.9215 1.1379 42.0737 1.00758 42.1102 0.863522C42.1468 0.719459 42.1174 0.594459 42.0193 0.492272Z" fill="#1B1B1B"/>
</svg>
